<svg xmlns="http://www.w3.org/2000/svg" viewBox="0 0 512 512" xml:space="preserve"><path d="M224.642 153.233h15.181v39.107h-15.181zM268.88 199.582l16.417-35.493 13.778 6.373-16.417 35.492zM165.372 170.453l13.778-6.372 16.417 35.492-13.778 6.373z"/><path d="M310.299 77.184V0L71.275 76.877a7.85 7.85 0 0 0-.796.308h-6.56V512h336.63V77.184h-90.25zm-15.18-56.355v56.355h-175.22l175.22-56.355zm90.249 475.99H79.099V92.365h306.269v404.454zM310.299 0z"/><path d="M356.291 291.228c0-18.665-7.097-36.172-19.985-49.295-12.974-13.212-30.371-20.489-48.988-20.489-21.819 0-42 10.075-55.086 26.924-13.087-16.848-33.268-26.924-55.086-26.924-18.616 0-36.013 7.276-48.988 20.489-12.887 13.124-19.985 30.631-19.985 49.295 0 17.443 5.221 27.988 9.034 35.688l.418.842c16.288 32.997 105.956 107.526 109.766 110.683l4.831 4.004 4.841-3.991c.083-.069 7.35-6.067 17.973-15.237 9.987 8.835 17.599 15.152 17.687 15.225l4.83 4.004 4.841-3.991c5.934-4.891 58.251-48.383 67.873-68.691l.26-.549c2.295-4.828 5.764-12.123 5.764-22.961 0-8.684-2.344-16.945-6.8-24.159 3.195-7.123 6.8-17.03 6.8-30.867zm-19.473 71.467-.269.566c-6.293 13.282-41.092 44.327-58.962 59.426a853.396 853.396 0 0 1-17.405-15.223c-30.955-27.846-39.385-39.715-41.654-44.312l-.156-.317c-2.1-4.25-4.272-8.645-4.272-16.583 0-17.045 13.099-30.397 29.82-30.397 11.331 0 21.649 6.239 26.926 16.283l6.719 12.784 6.719-12.785c5.278-10.044 15.596-16.282 26.925-16.282 1.163 0 2.316.066 3.452.196 7.956.909 15.15 4.949 20.11 11.393l.006.008c4.142 5.387 6.333 11.887 6.333 18.8.001 7.412-2.279 12.209-4.292 16.443zm1.311-53.1c-.113-.085-.231-.164-.345-.248-.164-.12-.329-.238-.494-.356-.5-.358-1.006-.704-1.52-1.04-.137-.089-.27-.181-.407-.269a45.258 45.258 0 0 0-1.924-1.162c-.145-.083-.292-.16-.438-.241a41.698 41.698 0 0 0-1.62-.855c-.178-.089-.355-.179-.533-.266a45.167 45.167 0 0 0-2.052-.938l-.198-.08a45.388 45.388 0 0 0-4.387-1.567c-.103-.031-.204-.066-.308-.096a43.886 43.886 0 0 0-2.194-.576c-.188-.045-.378-.085-.568-.128a43.322 43.322 0 0 0-1.798-.363c-.18-.032-.36-.068-.54-.099a44.598 44.598 0 0 0-2.262-.324c-.147-.017-.294-.028-.441-.045a44.689 44.689 0 0 0-2.549-.201 46.545 46.545 0 0 0-2.338-.067c-13.011 0-25.131 5.485-33.645 14.816-8.515-9.331-20.635-14.816-33.645-14.816-12.169 0-23.532 4.762-31.996 13.406-7.338 7.495-11.791 17.179-12.79 27.643a47.554 47.554 0 0 0-.215 4.528c0 11.485 3.377 18.319 5.842 23.308l.154.311c.26.526.555 1.075.872 1.638l.1.18a46.88 46.88 0 0 0 1.006 1.668c.058.092.114.183.174.276.361.565.748 1.147 1.159 1.744l.218.314a80.01 80.01 0 0 0 1.339 1.864c.07.095.143.191.215.286a96.308 96.308 0 0 0 1.561 2.035l.139.174c.567.716 1.16 1.45 1.783 2.203l.068.083c.622.75 1.278 1.522 1.956 2.307l.248.288c.658.759 1.346 1.536 2.055 2.327l.341.38a230.564 230.564 0 0 0 2.581 2.813 256.76 256.76 0 0 0 2.398 2.539l.325.338a297.016 297.016 0 0 0 2.815 2.896c.93.944 1.888 1.908 2.873 2.886l.187.187c.97.962 1.971 1.945 2.995 2.941l.427.416a491.198 491.198 0 0 0 3.591 3.45c1.049.999 2.123 2.013 3.222 3.043l.528.494a614.117 614.117 0 0 0 3.442 3.194l.142.132c-4.677 4.026-8.61 7.359-11.438 9.737-28.188-23.74-89.379-78.127-100.999-101.666l-.424-.858c-3.667-7.405-7.457-15.061-7.457-28.951-.003-30.618 23.626-54.603 53.79-54.603 20.354 0 38.887 11.206 48.367 29.245l6.719 12.785 6.719-12.785c9.48-18.039 28.013-29.245 48.367-29.245 30.164 0 53.792 23.984 53.792 54.604-.002 7.399-1.305 13.397-2.985 18.366zM360.843 25.739V40.92c39.733 0 72.058 32.326 72.058 72.058h15.181c0-48.103-39.136-87.239-87.239-87.239z"/></svg>