<svg xmlns="http://www.w3.org/2000/svg" width="128" height="97" fill="none"><path d="m10 11 10.5-3c3.6-1.029 7.833 7.905 9.5 12.5L35 41v43.5L23.5 95l-10-1.5-8-1.5c-1.167-8.167-3.6-26.1-4-32.5-.4-6.4 2.5-26 4-35L10 11Z" fill="#535353" stroke="#000"/><path d="m43.538 12.082 10.5-3c3.6-1.029 7.833 7.904 9.5 12.5l5 20.5v43.5l-11.5 10.5-10-1.5-8-1.5c-1.167-8.167-3.6-26.1-4-32.5-.4-6.4 2.5-26 4-35l4.5-13.5Z" fill="#535353" stroke="#000"/><path d="m85 4 13 19.5 3 2.5 16-23.5 3 5V15l-3 16.5-1.5 10L121 63l5 22.5V95H74l.5-7 5-26.5 7-20-4.5-18L80.5 10 85 4Z" fill="#C8CFC8" stroke="#000"/><path fill-rule="evenodd" clip-rule="evenodd" d="M23.845 3.434c-1.666 1.842-5.293 3.8-8.057 4.353-8.324 1.664-9.946 4.995-13.4 27.515C-.519 54.247-.643 58.84 1.318 75.03c1.22 10.068 2.347 18.428 2.507 18.578.16.15 4.861.838 10.447 1.529 9.667 1.197 10.412 1.001 15.466-4.052 5.254-5.254 5.345-5.271 8.48-1.81 5.283 5.837 9.172 7.013 19.082 5.775l9.456-1.181 2.2-19.09c2.213-19.221 1.737-26.175-3.75-54.605-1.684-8.735-2.189-9.373-9.644-12.22-4.326-1.652-8.775-4.098-9.885-5.435-3.145-3.789-18.145-3.158-21.832.915ZM80.5 6.06c-2.201 5.27-2.116 7.577.73 19.517l3.227 13.541-5.046 20.004c-2.777 11.001-5.564 23.8-6.199 28.44L72.061 96H128l-1.146-8.437c-.629-4.64-3.207-17.396-5.726-28.346-4.538-19.725-4.552-20.036-1.603-33.293 2.498-11.224 2.615-14.39.727-19.611-1.239-3.425-2.864-6.227-3.61-6.227-.748 0-4.721 4.763-8.829 10.588l-7.467 10.586-7.25-10.581C89.105 4.859 85.204.095 84.42.09c-.783-.002-2.547 2.684-3.92 5.97ZM33.077 3.993c1.657 1.657 2.606 1.657 4.264 0 1.657-1.657 1.185-2.131-2.132-2.131s-3.79.474-2.132 2.131Zm-7.343.83c-1.699 1.696-1.46 4.144.401 4.144.872 0 2.047-1.2 2.61-2.665 1.04-2.707-.854-3.637-3.011-1.48Zm16.098 2.485c.626 2.394 1.564 3.065 2.7 1.93 1.838-1.838.392-5.6-2.154-5.6-.828 0-1.075 1.652-.546 3.67Zm40.313 2.286c-1.181 3.076-.39 8.802 2.905 21.035 1.76 6.53 2.084 6.757 9.657 6.757h7.837L95.33 24.508C86.194 8.194 83.746 5.425 82.145 9.594Zm27.482 8.044c-5.978 9.58-6.248 10.61-3.94 15.018 4.313 8.229 8.481 6.09 10.894-5.59 2.425-11.744 2.756-19.913.8-19.796-.732.045-4.222 4.71-7.754 10.368Zm-95.294-6.84c-4.682 1.88-4.717 2.172-1.441 11.572 1.379 3.952 3.072 14.9 3.765 24.33 1.14 15.54 1.61 17.213 5.019 17.883l3.761.739-3.765.241c-4.115.265-5.95 6.734-5.987 21.112-.022 8.254 1.128 8.883 8.9 4.867 6.186-3.2 8.847-7.641 8.847-14.766 0-3.907-.794-5.184-3.11-5.001-1.71.136-3.108-.953-3.108-2.418 0-1.465 1.398-2.552 3.109-2.417 2.176.172 3.11-1.05 3.11-4.075 0-3.1-.863-4.174-3.046-3.8-1.823.313-3.32-.827-3.733-2.84-.544-2.662.09-3.16 3.045-2.386 5.675 1.484 4.797-3.253-4.186-22.6-4.354-9.38-7.467-18.23-6.916-19.663 1.137-2.96 1.156-2.956-4.264-.778Zm37.538.908c.522 1.362-2.612 10.152-6.967 19.532-7.75 16.691-7.919 17.444-7.919 35.27 0 16.622.35 18.536 3.998 21.874 2.198 2.01 5.8 4.204 8.004 4.872 5.42 1.643 6.462-1.718 4.94-15.938-1.093-10.199-1.674-11.524-5.091-11.623l-3.855-.114 3.757-1.517c3.294-1.33 3.913-3.524 5.034-17.849.703-8.98 2.434-19.602 3.844-23.6 2.996-8.49 2.417-11.005-2.853-12.382-2.807-.733-3.587-.335-2.892 1.475Zm-30.876 1.46c0 1.332 2.418 7.527 5.373 13.765l5.37 11.343-1.04-7.993c-1.07-8.222-5.895-19.538-8.33-19.538-.755 0-1.373 1.09-1.373 2.422Zm22.486 2.461c-1.364 2.688-3.004 8.881-3.644 13.766l-1.164 8.88 5.325-11.545c2.928-6.35 5.348-12.543 5.375-13.765.087-3.92-3.335-2.373-5.892 2.664Zm-15.025-1.776c6.495 13.329 6.753 13.444 10.837 4.885l2.966-6.217H35.03c-3.973 0-6.933.599-6.575 1.332ZM4.632 38.731c-2.406 17.38-2.54 23.457-.812 36.457C4.96 83.77 6.494 90.764 7.226 90.73a80.784 80.784 0 0 1 2.896-.059c.86 0 1.153-8.657.65-19.236-.575-12.15-.162-21.508 1.123-25.401 2.06-6.236.108-23.677-2.995-26.78-.76-.758-2.68 8.006-4.268 19.476Zm54.274-12.447c-.735 3.665-1.032 10.258-.66 14.654.372 4.396.666 17.385.65 28.863-.015 11.478.646 20.87 1.467 20.87.823 0 2.077.2 2.788.444.71.246 2.228-6.749 3.372-15.541 1.729-13.282 1.606-19.366-.73-35.968-1.546-10.99-3.428-19.982-4.18-19.982-.754 0-1.971 2.998-2.707 6.66Zm-25.474 6.661c0 1.465.8 2.664 1.777 2.664.977 0 1.776-1.199 1.776-2.664s-.8-2.664-1.776-2.664c-.977 0-1.777 1.199-1.777 2.664Zm47.432 31.528c-2.567 10.99-4.896 21.98-5.173 24.422l-.507 4.44 24.43.495 24.429.493-.026-6.71c-.016-3.691-1.608-13.105-3.541-20.92-1.932-7.815-3.934-16.009-4.449-18.206-.878-3.75-1.85-3.997-15.715-3.997h-14.78l-4.668 19.983ZM12.302 62.34l.19 9.68 1.732-7.758c1.201-5.373 1.143-8.348-.19-9.68-1.379-1.379-1.869.815-1.732 7.758Zm42.477-3.197c.016 3.176.803 6.972 1.75 8.437 1.245 1.927 1.73.328 1.75-5.773.014-4.64-.773-8.437-1.75-8.437s-1.764 2.597-1.75 5.773Z" fill="#000"/></svg>