<svg xmlns="http://www.w3.org/2000/svg" width="42" height="44" fill="none"><path d="M20.468 21.007V16.33c0-.816-.076-1.627-.076-2.443 0-.514.012-1.015-.059-1.522-.162-1.166-.11-2.658.362-3.737.402-.92.597-1.683 1.43-2.254.485-.332 1.347.067 1.732.385.686.568 1.078 1.408 1.147 2.301.052.667.156 1.306.156 1.981 0 .254-.076.077-.076-.082 0-.62.095-1.177.395-1.726.448-.82 1.252-1.435 2.069-1.812.722-.333 1.506-.94 2.304-.506 1.452.789.84 2.955.265 4.091-.492.973-1.094 1.895-1.72 2.777-.66.931-1.232 1.925-1.88 2.867-.804 1.174-1.657 2.349-2.568 3.439-.524.627-1.113 1.207-1.703 1.769-.283.27-.763 1.016-1.173 1.016M23.992 21.487c.19-.744 1.068-1.497 1.564-2.075.336-.391.633-.813.972-1.201.966-1.108 2.32-1.6 3.59-2.307 1.199-.668 2.42-1.073 3.715-1.494a4.815 4.815 0 0 1 1.264-.232c.45-.02 1.158-.127 1.59.035.425.16.564.934.65 1.294.224.934-.543 1.385-1.165 1.97a41.43 41.43 0 0 1-1.044.943c-.113.1-.434.463-.605.463-.19 0 .192-.379.197-.384.403-.392.8-.613 1.372-.69.751-.102 1.442-.158 2.115.236.645.377 1.465 1.084 1.792 1.752.302.615.408 1.165.368 1.847-.016.278-.416.389-.627.48-1.18.517-2.297 1.035-3.527 1.408a47.267 47.267 0 0 1-9.057 1.79c-.915.091-1.842.082-2.756.171-.404.04-.572-.088-.65-.467" stroke="#000" stroke-width="1.4" stroke-linecap="round"/><path d="M23.99 25.893c1.05 0 2.175.122 3.212-.017.594-.08 1.184-.233 1.779-.322.599-.088 1.227-.042 1.832-.042 1.014 0 1.935.153 2.924.347 1.067.21 2.288.513 3.27.964.81.373 3.298 1.733 2.232 2.877-.731.783-1.482.99-2.552.99-.316 0-.792.08-1.1-.018-.193-.061-.277-.356-.018-.364.865-.024 1.984 1.008 2.396 1.692.463.77.788 1.529.595 2.424-.08.37-.305.861-.595 1.138-.28.267-.989.265-1.349.342-1.169.251-2.019.009-2.946-.723-1.611-1.272-2.86-2.862-4.33-4.263l-2.963-2.826c-.594-.566-1.266-1.067-1.824-1.666-.165-.177-.246-.425-.421-.592-.119-.113-.31-.183-.382-.322" stroke="#000" stroke-width="1.4" stroke-linecap="round"/><path d="M23.63 25.563c.433.075.886.568 1.19.834.854.745 1.686 1.512 2.444 2.349 1.052 1.161 2.07 2.35 3.132 3.503.776.843 1.522 1.7 2.114 2.675.362.596.788 1.345.815 2.05.018.483.105.893-.005 1.367-.068.295-.68.392-.928.543-.39.238-1.357.029-1.756-.113-.467-.166-1.3-.697-1.484-1.155-.045-.111-.135-.279.018-.039.259.409.212.931.29 1.385.145.856.067 1.337-.367 2.102-.171.3-1.533.157-1.797.112-.83-.139-1.922-1.148-2.345-1.78-.597-.89-1.355-1.724-1.806-2.696-.601-1.299-.826-2.655-.9-4.068-.141-2.663-.245-5.34-.245-8.007M21.948 25.5c0 3.558.325 7.23-.654 10.694a18.18 18.18 0 0 1-1.51 3.71c-.523.959-1.407 2.02-2.417 2.51-.425.207-.95.26-1.409.343-.492.09-.997.234-1.5.243-.782.014-1.084-.956-1.163-1.62a8.03 8.03 0 0 1 .063-2.152c.017-.105.294-.827.228-.91-.039-.047-1.496.744-1.618.793-1.372.543-3.413.94-4.418-.486-1.187-1.685.376-3.272 1.473-4.52.705-.8 1.5-1.53 2.372-2.142 1.392-.975 2.444-2.324 3.845-3.285.96-.658 2.028-1.254 3.045-1.819.455-.253 1.238-.792 1.782-.792" stroke="#000" stroke-width="1.4" stroke-linecap="round"/><path d="M19.375 27.453c-3.644 0-7.172 1.364-10.817 1.466-1.219.034-2.491.317-3.58-.426-.578-.395-1.312-.808-1.352-1.61-.021-.438.205-.8.575-1.041.579-.378 1.148-.757 1.83-.896.876-.18 1.676-.493 2.589-.507.259-.004.518 0 .777 0 .487 0-.184-.188-.375-.29-.7-.372-1.447-.702-1.975-1.321-.364-.426-.443-.892-.637-1.403-.185-.488-.547-1.765.005-2.154.565-.398 1.55-.654 2.222-.692 1-.057 1.972-.206 2.939.158.427.161.916.294 1.277.589.38.31.734.614 1.149.877.718.457 1.38 1.081 1.997 1.67.724.69 1.364 1.412 2.024 2.163.387.441 1.168.978 1.352 1.543M12.931 14.125c-1.996 0-3.636-1.026-5.409-1.831-1.674-.76-3.157-1.813-4.55-2.994-.83-.705-1.576-1.392-1.948-2.434-.23-.647 1.243-.939 1.67-1.06.987-.279 1.915-.415 2.907-.055.548.198 1.334.521 1.709.993.128.162-.12-.064-.16-.126-.29-.467-.423-1.008-.433-1.553-.012-.617 0-1.236 0-1.853 0-.59-.076-1.379.318-1.879.265-.336.804-.33 1.195-.33.689 0 1.334-.05 1.975.235.816.364 1.01 1.61 1.213 2.347.345 1.256.597 2.576.832 3.858.156.853.366 1.708.504 2.56.073.447.16.884.257 1.328.06.272-.016.72.12.959.165.291-.172 1.38.119 1.523" stroke="#000" stroke-width="1.4" stroke-linecap="round"/><path d="M18.912 23.805c-.093.193-.222.335-.311.494-.117.591.049 1.348.049 1.84 0 .93.342 2.049.974 2.724.647.691 1.207 1.032 2.114 1.011.619-.014 1.191-.33 1.782-.467 1.006-.232 1.948-1.698 1.948-2.723 0-.37.093-.933-.038-1.284-.11-.296-.17-.81-.187-1.128-.02-.377-.371-.814-.582-1.09-.26-.34-.633-.823-1.033-.972-1.07-.4-2.393-.182-3.421.272-.593.262-1.012.736-1.295 1.323Z" fill="#FDFF8C"/><path d="M18.5 24.66c0-.351.257-.533.412-.855.283-.587.702-1.061 1.295-1.323 1.028-.454 2.351-.672 3.421-.272.4.149.773.632 1.032.972.212.276.563.713.583 1.09.017.318.078.832.188 1.128.13.351.037.914.037 1.284 0 1.025-.942 2.491-1.948 2.723-.59.137-1.163.453-1.782.467-.907.021-1.467-.32-2.114-1.011-.632-.675-.974-1.795-.974-2.724 0-.676-.313-1.854.225-2.412" stroke="#000" stroke-width="1.4" stroke-linecap="round"/></svg>