<svg xmlns="http://www.w3.org/2000/svg" width="53" height="59" fill="none"><path fill-rule="evenodd" clip-rule="evenodd" d="M10.206.915c-1.61.908-5.022 9.2-5.022 12.205 0 1.055 1.36 4.735 3.021 8.176 3.433 7.107 3.51 8.085 1.438 18.097l-1.506 7.27-4.714.953c-5.401 1.093-4.895 1.432 5.027 3.368 8.64 1.685 10.481 1.31 5.642-1.152-1.986-1.01-3.831-2.189-4.1-2.62-.268-.431.3-4.58 1.26-9.221l1.75-8.437 6.45-6.099c4.76-4.5 6.451-5.671 6.451-4.47 0 3.58 2.604 7.468 7.62 11.377 5.029 3.921 5.285 4.312 6.602 10.056.754 3.287 1.595 7.604 1.87 9.595.495 3.588.467 3.635-3.48 5.713-3.927 2.067-5.404 3.903-2.468 3.067.832-.236 4.813-1.069 8.85-1.85 4.035-.783 7.658-1.724 8.05-2.092.392-.368-1.426-.935-4.04-1.26l-4.754-.589-.856-4.014c-3.3-15.47-3.316-13.665.174-20.356 3.706-7.105 3.94-10.399 1.21-17.046-1.838-4.477-2.105-4.73-4.964-4.712-2.934.019-7.033.78-11.008 2.046-1.765.562-1.942.342-1.942-2.405 0-3.434-.096-3.478-13.166-6.039-1.068-.21-2.596-.012-3.395.439Zm4.043 1.56c.95.384 3.474.934 5.611 1.222 2.32.312 3.19.24 2.158-.177-.95-.383-3.474-.933-5.611-1.221-2.32-.312-3.19-.24-2.158.176ZM8.323 6.24c-.777 2.018-1.413 3.945-1.413 4.283 0 .338 4.08.614 9.065.614h9.065V8.138c0-2.81-.177-3-2.806-3.009-1.543-.005-4.942-.579-7.554-1.274-2.611-.696-4.792-1.27-4.846-1.275-.055-.006-.734 1.641-1.511 3.659Zm25.35 2.566c-2.137.502-3.302 1.046-2.59 1.209.713.162 3.044-.252 5.18-.92 4.558-1.426 2.992-1.6-2.59-.289Zm6.246.696c-1.075.403-4.496 1.171-7.601 1.709-5.632.973-5.645.981-5.383 3.663l.263 2.688 9.348.244 9.35.243-.61-1.956c-.335-1.077-1.24-3.166-2.01-4.64-1.19-2.28-1.697-2.573-3.357-1.951ZM6.91 14.657c0 .994 1.243 4.174 2.762 7.067 3.378 6.435 3.243 6.258 3.976 5.206.33-.474 2.47-2.36 4.757-4.192 3.857-3.093 6.635-6.855 6.635-8.99 0-.57-3.31-.899-9.065-.899-8.647 0-9.065.083-9.065 1.808Zm9.966-.154c-.274.439-.102 1.04.38 1.336.483.295.878-.064.878-.798 0-1.505-.518-1.726-1.258-.538Zm10.754 5.67c0 3.31 2.647 6.357 10.876 12.52.969.725 7.254-10.236 7.254-12.65 0-.949-1.879-1.197-9.065-1.197-7.611 0-9.065.213-9.065 1.328Zm8.633.386c0 .471.412.857.915.857.502 0 .674-.386.38-.857-.293-.471-.704-.857-.914-.857-.21 0-.38.386-.38.857ZM6.48 48.828c-.294.471.235.857 1.173.857.94 0 2.419.245 3.288.544 1.39.477 1.373.377-.145-.83-1.995-1.587-3.555-1.793-4.316-.571Zm35.396 6.567c-1.518 1.207-1.535 1.307-.145.83.87-.299 2.617-.571 3.885-.604 2.062-.054 2.123-.137.576-.797-2.333-.994-2.35-.992-4.316.571Z" fill="#000"/></svg>