<svg xmlns="http://www.w3.org/2000/svg" width="550" height="650" viewBox="-35 -25 550 650" xml:space="preserve"><path d="M480 0v483.555c0 18.146-6.433 35.36-18.118 48.47-12.052 13.53-28.346 20.976-45.882 20.976H300.16c-17.203 0-31.686 6.732-43.06 20.018-8.581 10.038-12.082 20.249-12.115 20.352L242.751 600l-2.572-6.501c-.07-.18-4.199-10.39-13.081-20.429-11.79-13.317-25.972-20.069-42.138-20.069H69.12C32.3 553.001 0 520.548 0 483.555V0h480z"/><path fill="#FDDA17" d="M349.268 136.746c-1.851 3.607-3.617 8.333-2.952 16.217-1.747-1.537-4.504-3.685-5.939-3.453a.617.617 0 0 0-.41.25c-.255.342-5.606 7.582-8.184 14.636-.731-5.055-1.697-16.391 2.834-23.548.225-.353.148-.694-.006-.894-.212-.283-.518-.7-4.045.206.512-1.916 1.69-5.96 3.015-7.973.877-1.325 2.47-3.35 4.167-5.492 4.453-5.646 7.372-9.478 7.372-11.272 0-2.424-.646-4.083-1.863-4.803-1.088-.643-2.502-.49-4.204.463-6.407 3.575-16.787 27.322-18.381 41.25-.915-3.016-2.208-8.476-2.349-12.739-.09-2.598.474-5.183 1.075-7.915.487-2.225.986-4.527 1.165-6.964.109-1.518-.64-1.788-1.306-1.846-.063-.006-.153-.02-.153 0-.058-.096-.231-.675.505-3.472.852-3.228 6.887-11.639 10.33-16.114 0 0 .16-.412.173-.611.006-.219-.364-.521-.569-.489-.154.02-.474.18-.474.18-.116.084-11.801 8.334-14.7 12.192-3.93 5.234-6.222 13.259-8.59 25.116-.864-2.919-2.586-7.06-5.517-7.523a.614.614 0 0 0-.473.116c-.39.277-9.031 6.758-15.296 29.283-.282-9.369.436-32.53 13.434-43.05.499-.406.39-.785.274-.971-.306-.54-.653-.405-2.117.173-.89.354-3.38 1.338-4.392 1.376.634-1.762 2.708-7.118 5.274-10.147 1.92-2.263 7.386-7.594 16.673-8.134.787-.045 1.01-.47 1.074-.72.174-.695-.127-1.505-5.33-4.797 2.771-1.157 10.124-4.038 15.795-4.533 1.484-.135 3.456-.129 5.542-.122 6.176.012 10.303-.097 11.494-1.833.257-.38.486-1.01.141-1.897-1.998-5.112-9.913-4.257-15.155-3.69-.953.102-1.772.192-2.438.23-6.49.386-17.498 3.827-25.19 8.874 1.676-3.414 6.003-10.352 14.88-14.815.633-.315.64-.701.536-.971-.243-.617-.306-.778-7.34 1.299 1.19-1.768 3.29-4.688 5.069-6.103 5.817-4.61 19.04-4.044 19.168-4.038a.649.649 0 0 0 .64-.443c.415-1.28-1.28-2.534-3.245-3.993-.794-.586-2.132-1.576-2.624-2.2 2.221-.347 9.132-1.356 13.139-1.08 6.157.418 10.88 1.299 19.987 9.292l.006.006s.365.27.513.264c.128 0 .48-.257.55-.367.102-.167-.051-.662-.051-.662-.052-.097-5.146-9.246-10.529-16.404 2.228 1.036 5.185 2.18 6.465 1.646.384-.16.64-.443.755-.83a.667.667 0 0 0 .006-.333c-.076-.303-1.907-7.029-17.702-11.273 4.583-.604 12.871-1.356 16.82.438 3.916 1.775 10.348 9.471 10.412 9.549a.646.646 0 0 0 1.127-.309c.486-3.022-1.67-7.864-2.925-10.346 5.286 2.797 10.746 12.294 10.45 21.966-.088 2.977 1.256 3.401 1.843 3.453 1.115.09 2.415-.997 2.555-2.155.883-7.311.563-18.165.397-23.99-.013-.335-.02-.657-.033-.952 1.365 2.687 3.891 8.668 6.087 14.255a.641.641 0 0 0 .563.405.641.641 0 0 0 .596-.34c.07-.135 6.72-12.642 13.778-14.649-.716 2.463-1.843 7.086-.557 8.373.14.141.34.206.537.18a.628.628 0 0 0 .468-.322c.142-.25 3.387-5.838 12.352-4.012-3.072 2.552-10.265 8.95-9.363 12.147a.63.63 0 0 0 .762.45c1.927-.457 4.94-.862 6.035-.425-2.375 1.724-11.181 8.501-13.12 15.71-.582 2.186-.327 4.738.652 6.346.461.752 1.038 1.228 1.671 1.363 3.002.643 5.946-4.707 8.096-8.616.506-.926.947-1.724 1.3-2.277.313-.488.646-1.054.998-1.652 2.087-3.53 4.895-8.295 9.453-8.366l-.736 3.762a.646.646 0 0 0 .295.675c.23.135.524.116.735-.052.07-.057 6.7-5.33 16.691-3.401-1.965 2.205-4.351 5.343-3.366 6.661.614.83 2.405.882 6.068.913 3.328.033 7.475.078 10.398 1.081 6.234 2.141 13.204 5.581 18.158 14.687-2.54-1.125-7.623-3.3-13.133-5.19-5.51-1.89-11.45-3.51-15.699-3.517a.646.646 0 0 0-.576.36.656.656 0 0 0 .07.682l5.05 6.488c-3.757-.457-13.267-1.537-16.818-1.338-4.846.27-11.746 3.164-15.464 8.887-.275.424-.294.887-.057 1.28.775 1.28 4.198 1.28 6.106 1.08 3.051-.321 6.937-1.177 10.693-2.006 3.956-.869 7.687-1.691 9.895-1.768 4.358-.148 14.656-.026 20.084 3.986l-8.283 2.47a.646.646 0 0 0-.056 1.214c.101.04 9.727 3.846 12.742 5.44 2.853 1.505 6.65 4.193 7.526 10.347l-4.37-2.321a.633.633 0 0 0-.782.14.65.65 0 0 0-.038.805c.05.07 5.165 7.208 8.416 14.558.205.47.402.926.582 1.37v3.157c-2.951-3.768-7.206-8.585-11.655-11.485a.646.646 0 0 0-.671-.012.656.656 0 0 0-.315.597l.488 7.138c-2.785-6.835-7.418-14.526-12.75-18.467-.326-.251-.71-.29-1.042-.123-.93.476-1.243 3.145-1.313 5.8-3.194-3.478-12.684-12.873-22.393-13.284-1.383-.058-5.6.797-6.727 3.054-.364.72-.55 1.871.596 3.305.576.707 2.048 1.26 5.062 2.354 5.958 2.153 15.802 5.716 20.908 13.323l-3.557.984a.628.628 0 0 0-.461.508.648.648 0 0 0 .256.636c.185.129 17.543 12.552 22.476 22.011l-4.448-2.295a.63.63 0 0 0-.794.173.643.643 0 0 0 .014.817c.09.103 8.364 10.005 5.005 19.83-1.798-2.99-6.804-11.002-10.273-13.908a.834.834 0 0 0-.71-.18c-.679.141-1.184 1.022-2.26 3.145-.236.469-.556 1.092-.812 1.536-2.35-5.344-10.252-15.304-10.605-15.741-.167-.212-.442-.296-.697-.212a.642.642 0 0 0-.442.585c-.083 1.948-.333 4.218-.608 5.164-.909-.946-1.926-2.084-2.989-3.274-4.55-5.073-9.703-10.822-13.855-10.97-1.146-.045-2.158.354-2.99 1.164a.795.795 0 0 0-.243.585c-.007.933 1.657 2.65 6.803 7.73 5.152 5.086 12.09 11.934 15.5 17.24l-4.14-.252a.63.63 0 0 0-.614.36.637.637 0 0 0 .096.708c.063.077 6.375 7.395 7.335 14.513-3.117-1.885-5.076-2.643-5.819-2.238a.885.885 0 0 0-.473.791c-.288 11.742.532 35.263 1.024 47.667-3.865-20.062-6.682-41.385-6.714-41.629a.647.647 0 0 0-.57-.56.657.657 0 0 0-.671.438c-.013.039-1.228 3.55-3.648 3.716-.596-3.51-4.121-22.506-11.552-27.605-1.677-1.157-3.463-1.53-5.286-1.132a.647.647 0 0 0-.475.432c-.07.212-.02.45.129.623.07.084 6.765 7.922 5.812 21.349-2.427-4.488-8.373-14.867-11.938-15.587-.62-.122-1.19.013-1.644.392-.614.514-.37 1.35 1.62 6.906 2.56 7.137 6.84 19.092 5.37 25.104a.634.634 0 0 0 .185.623c.166.161.41.213.633.142l4.98-1.614c-.634 4.951-2.938 13.362-3.667 15.953l-.046.155s.012.373.084.476c.057.09.257.205.358.225.142.032.57-.02.57-.02 2.182-1.671 4.69-3.69 6.369-5.054-2.88 8.16-5.211 21.837-5.32 22.467-.031.22.045.444.212.592.16.148.397.2.602.135a27.188 27.188 0 0 0 6.43-2.887c-1.573 9.066-8.857 17.606-8.933 17.696a.635.635 0 0 0-.083.707.633.633 0 0 0 .62.354c2.829-.238 6.854-2.141 9.01-3.26-.985 2.404-2.45 4.68-3.768 6.732-1.312 2.039-2.438 3.794-2.944 5.37-.358 1.106-.192 4.102-.083 5.504H379.18c.973-2.65 3.52-10.745 2.233-19.85 1.107.797 3.334 3.002 5.152 5.009a.636.636 0 0 0 1.114-.418c.122-5.215-.109-13.066-3.284-22.216 1.466 1.453 3.816 4.031 5.92 6.468.18.206.48.277.73.167a.644.644 0 0 0 .39-.65c-.082-.912-1.99-21.63-7.007-33.848 1.414 1.17 3.667 3.235 5.69 5.196a.639.639 0 0 0 1.069-.592c-.897-4.469-3.566-9.485-6.15-14.345-1.352-2.547-2.644-4.978-3.655-7.267l6.437 2.874a.64.64 0 0 0 .883-.732c-.038-.168-3.955-16.507-6.175-23.593a.639.639 0 0 0-1.203-.045l-4.147 10.565-4.115-3.589a.64.64 0 0 0-.672-.102.64.64 0 0 0-.391.553l-1.229 21.901c-1.645-3.614-4.608-11.684-4.211-22.397.005-.27-.148-.514-.391-.617s-.523-.045-.709.141l-4.577 4.727c.455-5.736 2.592-13.665 2.611-13.754a.638.638 0 0 0-1.126-.554l-5.305 7.132c-.314-2.322.21-4.347.646-6.025.46-1.775.857-3.305.128-4.579a1.005 1.005 0 0 0-.64-.476c-.698-.154-1.498.425-2.426 1.088-.255.18-.595.423-.857.584-.25-2.617 1.503-7.44 2.924-11.362 1.683-4.63 2.605-7.318 2.016-8.578a1.233 1.233 0 0 0-.723-.668c-3.257-1.158-5.607 4.7-7.494 9.413-.525 1.305-.98 2.438-1.37 3.19zM211.712 420.274l-.16.027.147.031-37.183 6.296a.631.631 0 0 0-.488.398v.006a.623.623 0 0 0 .097.624c.006.013.025.032.038.059.013.006.02.02.032.038.013.007.026.025.045.045.442.554 2.023 2.52 3.801 4.52.122.136.244.264.358.393a60.718 60.718 0 0 0 1.819 1.929c.236.238.473.47.704.688.23.212.454.418.672.61.217.187.428.36.627.521.153.116.295.219.434.315.142.09.27.174.398.239.364.199.794.328 1.28.405.096.02.191.031.294.045.845.11 1.817.102 2.83.09 1.35-.013 2.751-.032 3.487.296 1.51.662 3.36 2.861 4.992 4.802 1.293 1.537 2.508 2.985 3.603 3.801 1.453 1.087 5.216 3.016 7.597 4.2-2.938.237-7.105.436-8.627-.027-1.268-.379-2.662-1.8-4-3.183-1.729-1.761-3.508-3.594-5.473-3.754-.876-.065-2.259.417-3.718.938-1.107.393-2.342.817-2.937.83-2.503-.046-8.8-3.345-12.173-5.318-.02-.013-.038-.02-.058-.033l-.441-.263-.385.412-.249.264.308.63 24.684 34.768-34.342-24.545a.633.633 0 0 0-.685-.039.66.66 0 0 0-.326.606c.031.45.78 11.181 4.121 15.915 1.26 1.78.807 4.931.448 7.471-.218 1.498-.396 2.791-.23 3.685.435 2.327 2.253 6.526 3.353 8.937-2.514-1.485-6.125-3.845-6.97-5.35-.479-.855-.415-2.43-.364-3.953.064-1.666.121-3.242-.416-4.367-.442-.932-1.644-1.71-2.81-2.47-.736-.47-1.49-.963-1.836-1.37-2.363-2.79-7.316-12.936-7.366-13.04a.643.643 0 0 0-.673-.353.646.646 0 0 0-.537.533l-6.484 41.257-6.56-41.076c-.038-.233-.199-.425-.422-.502s-.467-.032-.64.129c-.32.289-7.847 7.19-9.17 9.626-.526.964-.86 2.096-1.21 3.299-.833 2.848-1.78 6.076-5.627 8.693-1.516 1.035-2.054 2.578-2.579 4.077-.333.958-.672 1.942-1.273 2.855-.814 1.228-1.511 2.591-2.074 3.833.262-3.415.71-7.98 1.293-9.704.307-.92.998-2.18 1.734-3.51 1.101-1.989 2.234-4.052 2.451-5.609.128-.886-.179-2.056-.499-3.292-.275-1.074-.595-2.289-.467-2.944.59-3.01 6.451-10.835 6.509-10.913a.626.626 0 0 0 .115-.494.601.601 0 0 0-.282-.43l-2.354-1.525a.632.632 0 0 0-.737.032L85.114 476.27l23.5-33.67a.632.632 0 0 0 .058-.63.637.637 0 0 0-.512-.372c-.243-.027-5.92-.644-8.8.102-1.492.386-3.489 1.196-5.606 2.051-1.862.746-3.79 1.524-5.466 2.052-.442.141-2.035.122-3.443.11-2.093-.026-4.468-.059-5.728.288-3.303.9-6.887 2.334-9.095 3.274 1.472-1.904 4.045-4.791 7.13-6.25 1.478-.702 3.514-1.023 5.305-1.306 1.434-.231 2.676-.425 3.425-.791.98-.476 1.894-1.383 2.95-2.437 1.299-1.3 2.777-2.765 4.736-3.755 4.064-2.045 9.663-2.591 9.722-2.591a.64.64 0 0 0 .46-.27.636.636 0 0 0 .103-.528l-.634-2.617a.646.646 0 0 0-.519-.483l-42.233-6.7 42.087-6.025a.641.641 0 0 0 .538-.508l.409-1.961a.646.646 0 0 0-.302-.689c-.076-.044-7.64-4.533-15.43-7.89-1.106-.475-2.47-2.012-3.794-3.49-1.837-2.072-3.745-4.205-5.659-4.431-6.354-.746-8.684-3.202-9.516-4.63 2.042.456 6.272 1.177 10.496.515 1.165-.174 2.95 1.272 4.538 2.552 1.465 1.19 2.853 2.315 4.108 2.585 1.043.225 2.266-.199 3.45-.61.902-.315 1.83-.63 2.477-.58 5.446.457 12.121 7.544 12.186 7.614a.662.662 0 0 0 .53.206.65.65 0 0 0 .48-.31l1.556-2.538a.632.632 0 0 0-.026-.714l-23.616-32.396 32.442 23.451c.224.166.531.16.755-.006a.65.65 0 0 0 .218-.734c-.019-.045-1.715-4.842-1.133-7.195.749-2.996-.692-5.672-2.08-8.263-.986-1.833-2.003-3.73-2.227-5.71-.116-1.074-.007-2.412.102-3.71.083-1.004.167-1.955.147-2.823-.045-2.25-1.606-8.076-2.842-12.333 2.567 2.327 6.465 6.114 7.296 7.947.353.791.378 2.277.404 3.71.025 1.692.05 3.293.556 4.341.647 1.363 2.33 2.823 3.962 4.232 1.248 1.08 2.534 2.192 3.11 3.08.641.99 1.101 3.6 1.504 5.903.621 3.517 1.018 5.536 1.946 6.127.186.116.384.18.59.18.088 0 .185-.013.28-.038a.646.646 0 0 0 .46-.502l7.509-39.88 6.067 39.359c.045.27.243.482.512.534.205.04.416-.02.563-.167a.672.672 0 0 0 .109-.129l.916-1.524 2.975-4.984v33.51h25.025l37.567 7.451z"/><path fill="#EE1D24" d="M329.85 141.684c1.107-.309 2.4-.61 3.218-.74-5.574 9.91-2.246 25.619-2.098 26.3.063.296.32.502.614.508.269.013.557-.192.634-.482 1.76-6.797 7.481-14.944 8.589-16.48 1.075.18 3.782 2.25 5.876 4.243a.637.637 0 0 0 1.074-.54c-1.031-8.54.665-13.291 2.65-17.156.416-.81.875-1.961 1.414-3.305 1.414-3.524 3.782-9.427 5.862-8.694.486.624-1.037 4.83-2.048 7.614-1.645 4.533-3.507 9.67-2.906 12.513.07.315.269.56.545.669.62.238 1.298-.25 2.24-.92.358-.257.972-.694 1.298-.83.334.81.033 1.981-.345 3.428-.556 2.148-1.248 4.823-.359 8.05a.641.641 0 0 0 .495.457.645.645 0 0 0 .631-.244l4.251-5.71c-.794 3.376-1.908 8.778-1.965 12.635a.628.628 0 0 0 .397.598.636.636 0 0 0 .703-.141l4.622-4.778c-.103 14.108 5.254 23.162 5.484 23.554.147.238.436.36.705.29a.648.648 0 0 0 .485-.585l1.287-22.976 3.815 3.325a.644.644 0 0 0 1.017-.25l3.808-9.692c1.85 6.315 4.435 16.848 5.312 20.474l-6.733-3.003a.633.633 0 0 0-.703.122.638.638 0 0 0-.155.702c1.101 2.784 2.676 5.748 4.346 8.886 2.118 3.987 4.302 8.096 5.466 11.838-5.715-5.427-6.163-5.105-6.599-4.797-.191.141-.466.47-.159 1.145 4.473 9.69 6.688 27.039 7.333 32.903-6.15-7.002-6.637-6.706-7.11-6.424-.204.123-.505.432-.236 1.132 3.322 8.739 3.84 16.39 3.82 21.78-4.716-5.036-5.535-4.637-5.9-4.463-.18.09-.583.366-.462 1.125 1.71 10.758-2.368 20.526-2.412 20.622a.64.64 0 0 0 .057.604.63.63 0 0 0 .532.29h34.88a.647.647 0 0 0 .64-.7c-.16-1.75-.308-4.836-.032-5.692.455-1.414 1.543-3.106 2.803-5.067 1.646-2.559 3.506-5.452 4.48-8.604a.64.64 0 0 0-.928-.752c-.05.033-4.717 2.688-8.352 3.608 2.311-3.004 7.513-10.546 8.345-18.43a.641.641 0 0 0-.312-.63.641.641 0 0 0-.699.045c-.032.02-2.591 1.903-6.253 3.164.685-3.813 3.188-17.092 5.94-23.42a.652.652 0 0 0-.204-.77.633.633 0 0 0-.794.019c-.04.031-3.438 2.842-6.694 5.382 1.062-3.89 2.982-11.337 3.34-15.446a.648.648 0 0 0-.838-.668l-4.896 1.588c.889-6.61-3.15-17.87-5.613-24.75-.845-2.36-1.722-4.804-1.824-5.588a.753.753 0 0 1 .39-.013c2.803.566 8.742 10.359 12.05 16.802.129.251.41.386.68.335a.624.624 0 0 0 .524-.547c1.607-12.68-3.283-20.885-5.196-23.535 1.094-.025 2.176.335 3.238 1.061 7.564 5.19 11.059 27.053 11.09 27.278a.642.642 0 0 0 .564.533c2.176.245 3.649-1.273 4.519-2.623.934 6.81 4.115 29.122 8.045 47.577a.637.637 0 0 0 .627.508c.026 0 .05 0 .083-.006a.646.646 0 0 0 .557-.669c-.02-.386-1.728-38.807-1.364-55.287.936.212 3.406 1.53 5.428 2.816a.653.653 0 0 0 .659.013.659.659 0 0 0 .32-.585c-.256-6.302-4.806-12.815-6.823-15.407l3.904.238c.23.02.461-.103.583-.303a.66.66 0 0 0 .012-.662c-3.2-5.574-10.796-13.073-16.345-18.551-2.842-2.804-5.779-5.697-6.342-6.675a2.678 2.678 0 0 1 1.83-.597c3.61.128 8.788 5.902 12.948 10.545 1.216 1.357 2.361 2.643 3.378 3.672.275.283.64.38.975.25.3-.115 1.042-.405 1.38-4.912 2.408 3.118 8.245 10.912 9.659 14.796.185.514.594.578.716.585.686.039 1.094-.669 2.138-2.733.365-.714.94-1.846 1.292-2.308 4.059 3.646 10.317 14.339 10.38 14.455a.635.635 0 0 0 1.133-.064c3.604-8.147-.569-16.314-3.097-20.146l3.662 1.883a.648.648 0 0 0 .723-.09.664.664 0 0 0 .173-.707c-3.245-8.72-18.343-20.32-22.585-23.457l3.11-.855a.638.638 0 0 0 .429-.38.63.63 0 0 0-.052-.572c-5.19-8.501-15.731-12.314-22.03-14.59-2.123-.772-4.127-1.499-4.498-1.955-.871-1.08-.557-1.71-.454-1.917.774-1.542 4.28-2.392 5.536-2.346 11.097.469 22.464 13.947 22.572 14.082a.64.64 0 0 0 1.133-.412c-.013-2.437.212-5.273.563-6.147 5.306 4.064 10.88 13.053 13.62 22.004.096.315.409.508.729.444a.644.644 0 0 0 .524-.675l-.71-10.405c4.166 3.03 8.102 7.633 10.766 11.099.179.231.345.457.505.669v163.135h-144V177.475h-86.4V5.144h230.4v116.503c-2.138-4.546-4.845-8.867-6.484-11.35l3.143 1.673c.204.11.454.103.652-.026a.667.667 0 0 0 .29-.591c-.585-7.633-5.044-10.835-8.34-12.578-2.318-1.222-8.199-3.62-11.149-4.803l7.667-2.29a.632.632 0 0 0 .442-.47.632.632 0 0 0-.186-.616c-5.26-4.887-15.98-5.273-21.894-5.074-2.33.078-6.119.914-10.131 1.8-3.718.817-7.573 1.666-10.554 1.988-2.593.27-4.41-.11-4.82-.418 3.482-5.325 9.92-8.019 14.44-8.27 4.262-.244 17.983 1.499 18.118 1.518a.646.646 0 0 0 .589-1.036l-5.145-6.616c10.168.765 28.421 9.201 28.613 9.292a.645.645 0 0 0 .846-.868c-5.192-10.752-12.885-14.61-19.733-16.97-3.116-1.067-7.379-1.106-10.796-1.144-2.08-.02-4.666-.045-5.044-.38-.204-.617 1.678-3.356 4.027-5.858a.659.659 0 0 0 .146-.63.632.632 0 0 0-.467-.437c-8.589-2.07-14.913.887-17.536 2.495l.576-2.951a.637.637 0 0 0-.115-.509.65.65 0 0 0-.455-.257c-5.798-.52-9.151 5.183-11.386 8.964a65.811 65.811 0 0 1-.971 1.614c-.378.585-.827 1.402-1.345 2.347-1.626 2.945-4.633 8.424-6.707 7.98-.282-.058-.582-.335-.845-.772-.652-1.067-1.088-3.196-.506-5.343 2.068-7.71 13.07-15.317 13.178-15.388a.64.64 0 0 0 .269-.656c-.077-.398-.313-.74-.684-.984-1.395-.906-4.82-.346-6.465-.006.436-2.56 6.131-7.948 9.96-11.009a.63.63 0 0 0 .23-.63.648.648 0 0 0-.461-.495c-8.276-2.2-12.634 1.39-14.273 3.286-.052-1.537.59-4.572 1.434-7.202a.635.635 0 0 0-.115-.61.637.637 0 0 0-.577-.226c-6.784.907-13.074 10.835-15.097 14.34-6.099-15.414-6.893-15.24-7.475-15.125-.243.052-.64.245-.621 1.03.014.636.038 1.51.07 2.559.166 5.793.487 16.673-.383 23.888-.058.425-.666 1.112-1.146 1.112h-.045c-.441 0-.697-.958-.659-2.218.313-10.192-6.106-22.062-12.953-23.92-.25-.065-.513 0-.673.212a.626.626 0 0 0-.05.7c.037.065 3.187 5.601 3.615 9.46-2.067-2.341-6.566-7.164-9.76-8.61-5.952-2.701-20.172-.155-20.774-.046-.302.052-.52.309-.525.618s.205.572.506.643c15.768 3.485 19.206 9.445 19.801 10.809-.864.244-4.435-1.074-7.84-2.926a.642.642 0 0 0-.8.978c3.98 4.855 8.09 11.49 10.367 15.335-7.704-6.121-12.41-6.925-17.99-7.304-4.952-.334-13.779 1.151-14.156 1.209a.642.642 0 0 0-.518.508c-.25 1.247 1.401 2.469 3.309 3.884.749.553 1.984 1.472 2.527 2.09-3.187-.058-13.778.103-19.123 4.346-2.81 2.225-6.163 7.653-6.304 7.878a.64.64 0 0 0 .038.732c.16.213.436.303.692.225 1.33-.398 2.733-.803 3.974-1.157-9.408 6.192-12.594 14.835-12.825 15.484l-.116.347s-.026.257.039.36c.116.18.607.193.82.187.09 0 .21-.058.325-.148 7.488-5.594 19.47-9.497 26.311-9.902.697-.045 1.51-.136 2.477-.239 4.858-.52 12.185-1.317 13.823 2.881.148.386.071.579-.012.701-.896 1.306-6.414 1.287-10.438 1.273-2.119-.006-4.122-.012-5.665.123-7.301.649-16.915 4.938-17.325 5.125a.64.64 0 0 0-.377.54.655.655 0 0 0 .3.591c3.552 2.2 4.936 3.293 5.48 3.826-9.518.701-15.15 6.199-17.146 8.553-3.245 3.825-5.62 10.847-5.722 11.143a.665.665 0 0 0 .082.579c.634.894 2.305.534 4.519-.27-14.419 14.705-11.564 44.96-11.43 46.298.033.315.287.7.595.7h.045c.294 0 .55-.321.621-.61 5.657-23.11 14.176-31.168 15.616-32.396 2.816.797 4.48 6.906 4.889 9.279.059.309.32.514.628.514a.663.663 0 0 0 .634-.527c2.547-13.272 4.825-22.017 8.92-27.47 1.73-2.309 7.163-6.572 10.977-9.42-2.931 4.012-7.213 10.185-8 13.15-.794 3.015-.697 3.999-.314 4.552.321.463.8.508 1.089.533.038.007.09.007.128.014.018.07.032.206.012.463-.166 2.34-.66 4.597-1.133 6.777-.62 2.817-1.202 5.479-1.107 8.23.121 3.763 1.062 8.02 1.613 10.225.724 2.887 1.222 4.328 1.594 5.054.364.72.607.72.807.72.248 0 .677-.167.703-.797.468-12.764 11.513-39.058 17.914-42.632.883-.49 2.098-.965 2.93-.476.789.462 1.236 1.813 1.236 3.697 0 1.479-4.103 6.681-7.097 10.475-1.71 2.16-3.322 4.206-4.225 5.581-1.895 2.862-3.398 9.17-3.461 9.44a.641.641 0 0 0 .178.61c.16.161.397.22.615.155zM240.64 412.822v170.286a85.93 85.93 0 0 0-9.607-13.324c-12.64-14.346-28.57-21.927-46.073-21.927H69.12c-34.093 0-64-30.048-64-64.302V299.006h144v77.832l-4.07 6.798-6.368-41.302a.662.662 0 0 0-.627-.547.626.626 0 0 0-.64.52l-7.976 42.35c-.37-1.08-.728-3.093-.985-4.546-.467-2.662-.908-5.17-1.69-6.373-.671-1.048-1.977-2.173-3.353-3.362-1.53-1.318-3.104-2.688-3.641-3.807-.378-.798-.404-2.328-.43-3.813-.031-1.634-.057-3.183-.518-4.212-1.286-2.842-8.153-8.887-9.133-9.735-.217-.2-.421-.284-.588-.284-.461 0-.705.592-.526 1.05 1.044 3.523 1.876 6.545 2.446 8.917.569 2.373.883 4.09.902 4.99.013.798-.064 1.718-.14 2.695-.116 1.357-.231 2.759-.097 3.955.244 2.231 1.325 4.237 2.368 6.179 1.332 2.482 2.592 4.823 1.965 7.343-.428 1.71.115 4.322.595 6.076l-34.163-24.69a.633.633 0 0 0-.826.07.639.639 0 0 0-.063.828l25.747 35.316-.903 1.473c-1.804-1.801-7.424-7.003-12.434-7.427-.916-.077-1.972.296-2.996.65-1.017.353-2.067.713-2.765.565-.96-.205-2.291-1.28-3.577-2.322-1.876-1.523-3.809-3.092-5.53-2.829-5.465.856-11.135-.771-11.194-.784a.639.639 0 0 0-.607.14.621.621 0 0 0-.199.593c.039.225 1.107 5.55 11.06 6.713 1.44.167 3.257 2.212 4.857 4.013 1.478 1.658 2.88 3.228 4.25 3.82 6.7 2.886 13.235 6.622 14.88 7.58l-.225 1.074-45.856 6.565a.643.643 0 0 0-.013 1.273l46.023 7.3.358 1.497c-1.703.22-6.015.914-9.447 2.643-2.137 1.074-3.692 2.624-5.061 3.986-.973.972-1.818 1.808-2.612 2.194-.569.283-1.779.475-3.06.675-1.881.302-4.012.636-5.656 1.421-5.159 2.444-8.832 8.346-8.986 8.597a.65.65 0 0 0 .064.766.64.64 0 0 0 .749.16c.057-.032 5.894-2.752 11.02-4.148 1.095-.296 3.469-.27 5.376-.244 1.99.02 3.238.026 3.847-.167 1.727-.54 3.674-1.33 5.555-2.09 2.08-.836 4.044-1.633 5.453-1.994 1.94-.508 5.472-.314 7.25-.173L81.64 479.01a.64.64 0 0 0 .083.829.63.63 0 0 0 .832.045l35.027-27.213 1.401.907c-1.388 1.897-5.779 8.057-6.33 10.886-.185.946.142 2.193.487 3.51.275 1.062.557 2.156.467 2.793-.185 1.324-1.312 3.362-2.303 5.162-.762 1.39-1.479 2.695-1.831 3.723-1.024 3.048-1.607 13.703-1.632 14.16a.636.636 0 0 0 .524.663.635.635 0 0 0 .724-.432c.013-.044 1.382-4.27 3.443-7.401.692-1.041 1.063-2.109 1.42-3.138.493-1.414.922-2.643 2.087-3.434 4.225-2.88 5.286-6.494 6.138-9.401.333-1.13.646-2.198 1.107-3.041.896-1.652 5.504-6.121 8.032-8.481l7.008 43.88c.051.308.32.54.634.54a.645.645 0 0 0 .633-.54l6.797-43.263c1.561 3.106 4.787 9.311 6.65 11.51.461.546 1.267 1.067 2.111 1.62.973.624 2.068 1.337 2.356 1.936.396.843.346 2.327.295 3.762-.065 1.703-.135 3.466.524 4.636 1.453 2.591 8.422 6.417 9.216 6.841.243.135.544.09.742-.102a.64.64 0 0 0 .135-.746c-.038-.07-3.514-7.292-4.11-10.443-.127-.688.052-1.942.245-3.273.39-2.758.883-6.2-.666-8.398-2.464-3.479-3.45-10.822-3.77-13.882l36.314 25.952a.638.638 0 0 0 .89-.894L172 442.626c3.072 1.66 7.923 4.07 10.355 4.115.8 0 2.061-.43 3.392-.9 1.21-.43 2.58-.92 3.187-.867 1.485.122 3.097 1.774 4.66 3.369 1.452 1.498 2.963 3.04 4.543 3.517.813.244 2.164.327 3.655.327 3.385 0 7.507-.436 7.757-.468a.638.638 0 0 0 .562-.528.652.652 0 0 0-.357-.688c-.077-.038-7.399-3.549-9.447-5.08-.986-.733-2.15-2.121-3.392-3.6-1.81-2.148-3.68-4.374-5.459-5.158-.992-.43-2.458-.418-4.013-.398-1.485.02-3.021.032-3.776-.38-1.792-.97-5.792-5.639-7.858-8.172l39.583-6.7c.3-.052.525-.342.53-.657a.674.674 0 0 0-.518-.669l-34.617-6.867h59.853z"/><path fill="#FFF" d="M474.88 475.672v7.883c0 35.456-26.412 64.302-58.88 64.302H300.16c-23.457 0-38.54 11.942-47.065 21.96a76.796 76.796 0 0 0-8.616 12.48V479.253c2.613-.226 6.51-4.488 13.23-4.488 9.248 0 13.504 6.256 18.342 6.217 4.64-.032 12.857-6.198 17.498-6.217 4.736-.02 13.178 6.244 17.92 6.217 4.589-.025 12.691-6.166 17.279-6.217 4.89-.052 13.67 6.262 18.562 6.217 4.638-.045 12.85-6.237 17.49-6.217 4.538.02 12.531 6.244 17.068 6.217 4.384-.025 12.04-6.108 16.423-6.217 5.043-.122 14.163 6.34 19.2 6.217 4.39-.109 12.038-6.108 16.429-6.217 5.043-.122 14.157 6.307 19.2 6.217 4.537-.083 12.531-6.102 17.068-6.217 1.057-.026 3.06.296 4.692.907zM474.88 297.078v170.235c-1.632-.612-3.635-.933-4.692-.908-4.537.116-12.53 6.135-17.069 6.218-5.042.09-14.156-6.34-19.2-6.218-4.39.11-12.037 6.109-16.428 6.218-5.037.123-14.157-6.34-19.2-6.218-4.384.11-12.039 6.193-16.423 6.218-4.537.026-12.53-6.198-17.068-6.218-4.64-.02-12.852 6.173-17.49 6.218-4.891.046-13.671-6.27-18.562-6.218-4.588.052-12.69 6.193-17.28 6.218-4.741.026-13.183-6.237-17.92-6.218-4.64.02-12.857 6.186-17.497 6.218-4.838.04-9.094-6.218-18.342-6.218-6.72 0-10.617 4.263-13.23 4.489v-58.072h86.4V297.078h144zM240.64 92.158v85.317h-91.52v117.673h-144V5.144h235.52v76.25c-4.928-5.89-23.264-26.55-38.349-27.38-8.21-.45-27.463 15.645-27.463 15.645s-26.56-25.933-39.148-24.969c-21.868 1.679-46.547 29.688-46.547 29.688-5.722.535-15.411-14.969-32.736-12.892C34.08 64.167 9.39 89.168 9.44 98.813c0 0 27.04-28.511 45.812-29.154 22.912-.784 51.623 31.084 51.623 31.084 2.349-5.144-13.818-18.725-12.058-21.317 7.57-11.156 29.58-25.612 41.485-24.981 22.343 1.183 48.102 41.758 49.26 39.437 1.92-3.859-8.704-14.63-6.867-19.079 2.457-5.954 17.409-11.722 23.815-11.356 14.554.83 33.145 22.557 38.13 28.711z"/><path fill="#007DC6" d="M474.88 467.313v8.359c-1.632-.611-3.635-.933-4.692-.907-4.537.115-12.53 6.134-17.069 6.217-5.042.09-14.156-6.34-19.2-6.217-4.39.109-12.037 6.108-16.428 6.217-5.037.123-14.157-6.34-19.2-6.217-4.384.109-12.039 6.192-16.423 6.217-4.537.027-12.53-6.198-17.068-6.217-4.64-.02-12.852 6.173-17.49 6.217-4.891.045-13.671-6.27-18.562-6.217-4.588.051-12.69 6.192-17.28 6.217-4.741.027-13.183-6.237-17.92-6.217-4.64.02-12.857 6.185-17.497 6.217-4.838.039-9.094-6.217-18.342-6.217-6.72 0-10.617 4.262-13.23 4.488v-8.36c2.613-.225 6.51-4.488 13.23-4.488 9.248 0 13.504 6.257 18.342 6.218 4.64-.032 12.857-6.198 17.498-6.218 4.736-.02 13.178 6.244 17.92 6.218 4.589-.025 12.691-6.166 17.279-6.218 4.89-.051 13.67 6.264 18.562 6.218 4.638-.045 12.85-6.237 17.49-6.218 4.538.02 12.531 6.244 17.068 6.218 4.384-.025 12.04-6.108 16.423-6.218 5.043-.122 14.163 6.341 19.2 6.218 4.39-.11 12.038-6.108 16.429-6.218 5.043-.122 14.157 6.308 19.2 6.218 4.537-.083 12.531-6.102 17.068-6.218 1.057-.025 3.06.296 4.692.908zM240.64 81.394v10.764c-4.986-6.154-23.577-27.881-38.131-28.71-6.406-.367-21.358 5.4-23.815 11.355-1.837 4.45 8.787 15.22 6.868 19.079-1.159 2.32-26.918-38.254-49.261-39.437-11.905-.63-33.914 13.825-41.485 24.981-1.76 2.592 14.407 16.173 12.058 21.317 0 0-28.71-31.868-51.623-31.084-18.772.643-45.812 29.154-45.812 29.154-.05-9.645 24.641-34.646 46.958-37.327 17.325-2.077 27.014 13.427 32.736 12.892 0 0 24.679-28.01 46.547-29.688 12.589-.964 39.148 24.969 39.148 24.969s19.252-16.095 27.463-15.645c15.085.83 33.42 21.49 38.349 27.38z"/><path fill="#FFF" d="M285.632 307.476c-2.201-.04-4.928-4.772-4.928-6.997 0-2.006 1.46-4.044 2.406-7.15 1.415-4.726 2.522-10.077 2.522-10.077s1.651 5.44 3.308 10.083c1.109 3.074 2.452 5.37 2.452 7.067 0 2.283-3.475 7.119-5.76 7.074zM285.632 385.924c-2.201-.038-4.928-4.77-4.928-6.996 0-2.006 1.46-4.044 2.406-7.15 1.415-4.726 2.522-10.077 2.522-10.077s1.651 5.44 3.308 10.083c1.109 3.073 2.452 5.37 2.452 7.067 0 2.276-3.475 7.119-5.76 7.073zM268.774 349.271c-4.153 0-5.35-7.208-5.35-11.149 0-3.576 1.46-3.993 2.407-9.51 1.414-8.412 2.522-21.136 2.522-21.136s1.65 12.885 3.308 21.135c1.107 5.472 2.451 6.347 2.451 9.363 0 4.064-1.492 11.297-5.338 11.297zM250.215 391.068c-4.148 0-5.352-6.359-5.352-9.838 0-3.157 1.466-3.517 2.4-8.391 1.423-7.421 2.529-18.661 2.529-18.661s1.651 11.376 3.309 18.667c1.107 4.829 2.45 5.594 2.45 8.257 0 3.587-1.49 9.966-5.336 9.966zM230.624 311.977c1.427-4.727 2.534-10.077 2.534-10.077s1.645 5.44 3.309 10.082c1.101 3.075 2.451 5.37 2.451 7.068 0 2.276-3.481 7.118-5.76 7.073-2.214-.038-4.934-4.771-4.934-6.996 0-2.007 1.465-4.045 2.4-7.15zM216.544 376.922c1.427-4.726 2.534-10.076 2.534-10.076s1.645 5.44 3.309 10.082c1.101 3.074 2.45 5.37 2.45 7.067 0 2.276-3.48 7.118-5.759 7.073-2.214-.038-4.934-4.771-4.934-6.996 0-2.006 1.465-4.045 2.4-7.15zM200.544 335.312c1.427-10.642 2.534-26.763 2.534-26.763s1.646 16.313 3.31 26.782c1.1 6.925 2.45 8.019 2.45 11.85 0 5.145-1.491 14.308-5.344 14.308-4.146 0-5.35-9.137-5.35-14.127 0-4.527 1.465-5.048 2.4-12.05zM180.063 298.473c1.428-4.726 2.536-10.077 2.536-10.077s1.644 5.44 3.308 10.083c1.1 3.074 2.451 5.37 2.451 7.067 0 2.276-3.481 7.118-5.76 7.073-2.214-.038-4.934-4.771-4.934-6.996 0-2.006 1.465-4.045 2.4-7.15zM181.318 389.782c-2.214-.038-4.934-4.771-4.934-6.996 0-2.006 1.466-4.045 2.4-7.15 1.427-4.726 2.534-10.076 2.534-10.076s1.645 5.44 3.309 10.083c1.102 3.073 2.451 5.369 2.451 7.066 0 2.276-3.481 7.118-5.76 7.073zM308.46 240.491s-8.64 30.222-75.513 30.222c-66.56 0-75.52-30.222-75.52-30.222h151.034z"/><path fill="#007DC6" d="M250.215 391.068c3.846 0 5.337-6.379 5.337-9.966 0-2.663-1.344-3.428-2.451-8.257-1.658-7.291-3.309-18.667-3.309-18.667s-1.106 11.24-2.528 18.66c-.935 4.875-2.4 5.235-2.4 8.392 0 3.479 1.203 9.838 5.35 9.838zm-17.057-64.945c2.279.045 5.76-4.797 5.76-7.073 0-1.697-1.35-3.993-2.451-7.068-1.664-4.642-3.309-10.082-3.309-10.082s-1.107 5.35-2.534 10.077c-.935 3.105-2.4 5.143-2.4 7.15 0 2.225 2.72 6.958 4.934 6.996zm-14.08 64.945c2.278.045 5.76-4.797 5.76-7.073 0-1.697-1.35-3.993-2.451-7.067-1.664-4.643-3.309-10.082-3.309-10.082s-1.107 5.35-2.534 10.076c-.935 3.105-2.4 5.144-2.4 7.15 0 2.225 2.72 6.958 4.934 6.996zm-15.584-29.579c3.853 0 5.345-9.163 5.345-14.307 0-3.832-1.35-4.926-2.451-11.85-1.664-10.47-3.31-26.783-3.31-26.783s-1.107 16.12-2.534 26.763c-.935 7.002-2.4 7.523-2.4 12.05 0 4.99 1.204 14.127 5.35 14.127zM182.6 312.62c2.278.045 5.76-4.797 5.76-7.073 0-1.697-1.351-3.993-2.452-7.067-1.664-4.643-3.308-10.083-3.308-10.083s-1.108 5.35-2.536 10.077c-.934 3.105-2.399 5.144-2.399 7.15 0 2.225 2.72 6.958 4.935 6.996zm-1.28 77.163c2.278.045 5.76-4.797 5.76-7.073 0-1.697-1.35-3.993-2.452-7.066-1.664-4.643-3.309-10.083-3.309-10.083s-1.107 5.35-2.534 10.076c-.934 3.105-2.4 5.144-2.4 7.15 0 2.225 2.72 6.958 4.934 6.996zm-23.891-149.29s8.959 30.221 75.52 30.221c66.872 0 75.513-30.222 75.513-30.222H157.428zm123.276 138.436c0 2.225 2.727 6.958 4.928 6.996 2.285.046 5.76-4.797 5.76-7.073 0-1.698-1.343-3.994-2.452-7.067-1.657-4.642-3.308-10.083-3.308-10.083s-1.107 5.35-2.522 10.076c-.947 3.107-2.406 5.145-2.406 7.15zm0-78.449c0 2.225 2.727 6.958 4.928 6.997 2.285.045 5.76-4.791 5.76-7.074 0-1.698-1.343-3.993-2.452-7.067-1.657-4.643-3.308-10.083-3.308-10.083s-1.107 5.35-2.522 10.077c-.947 3.106-2.406 5.144-2.406 7.15zm-11.93 48.792c3.846 0 5.338-7.233 5.338-11.297 0-3.016-1.344-3.891-2.45-9.363-1.66-8.25-3.31-21.135-3.31-21.135s-1.107 12.724-2.52 21.135c-.948 5.518-2.408 5.935-2.408 9.511 0 3.941 1.197 11.15 5.35 11.15zm7.476-154.756c-2.266-.167-14.746 13.69-15.79 12.217-4.928-6.982-23.41-26.248-25.036-23.354-3.373 5.999-33.108 26.049-33.108 26.049s-6.208-7.196-8.62-11.054c0 0-21.978 19.452-21.978 27.869 0 2.675 1.363 9.78 2.989 10.288 0 0 4.493-4.295 9.574-7.49 5.12-3.216 8.436-9.589 11.066-9.66 2.88-.076 14.733 12.43 14.733 12.43s15.558-26.807 23.36-24.679c15.2 4.154 21.587 25.438 22.752 23.612 3.329-5.202 8.947-5.054 12.032-7.105 1.446-.959 4.378-4.92 6.105-4.9 7.571.077 12.583 17.792 12.583 17.792s6.4-5.973 6.4-14.146c0-8.713-13.492-27.599-17.062-27.869zm54.63 218.307H149.12V177.475h181.76v235.347z"/><path fill="#EE1C24" d="M260.46 206.732c1.044 1.473 13.524-12.384 15.79-12.217 3.57.27 17.062 19.156 17.062 27.869 0 8.173-6.4 14.146-6.4 14.146s-5.012-17.715-12.583-17.792c-1.727-.02-4.66 3.941-6.105 4.9-3.085 2.051-8.703 1.903-12.032 7.105-1.165 1.826-7.552-19.458-22.752-23.612-7.802-2.128-23.36 24.68-23.36 24.68s-11.852-12.507-14.733-12.43c-2.63.07-5.946 6.443-11.066 9.658-5.08 3.196-9.574 7.491-9.574 7.491-1.626-.508-2.99-7.613-2.99-10.288 0-8.417 21.978-27.869 21.978-27.869 2.413 3.858 8.621 11.054 8.621 11.054s29.735-20.05 33.108-26.05c1.626-2.893 20.108 16.373 25.037 23.355z"/></svg>