<svg xmlns="http://www.w3.org/2000/svg" width="55" height="47" fill="none"><path fill-rule="evenodd" clip-rule="evenodd" d="M37.372 1.064c0 .37.321.672.714.672.392 0 .526-.302.297-.672-.23-.37-.55-.672-.714-.672-.164 0-.297.303-.297.672Zm8.001 1.176c-.837 1.066-.814 1.09.255.254 1.123-.878 1.48-1.43.925-1.43-.14 0-.67.53-1.18 1.176Zm-14.404.84c1.252.537 1.231.58-.28.625-.897.026-1.441.235-1.211.464.23.23 1.25.208 2.267-.046 1.448-.363 1.638-.597.874-1.078-.536-.339-1.43-.6-1.987-.579-.666.024-.552.233.337.614Zm7.615-.132c-2.838.182-3.385.495-5.224 2.988-1.13 1.532-2.054 3.166-2.054 3.633 0 .465 1.17 2.074 2.602 3.574l2.602 2.727-1.64.41c-1.24.312-2.16-.08-3.78-1.615-3.225-3.05-6.373-4.361-11.314-4.714-6.147-.438-10.46 1.065-14.352 5.002C1.158 19.267-.004 21.977 0 27.61c.005 7.516 3.748 13.668 10.292 16.915 3.757 1.863 12.987 1.702 16.769-.294 2.826-1.492 2.835-1.492 5.055-.19 6.487 3.804 13.805 2.937 18.553-2.199 3.29-3.559 4.537-7 4.304-11.88a304.607 304.607 0 0 1-.221-5.601c-.53-.448-.194-.111-.53-.448-.258.415-.886-.846-1.558-1.98-1.273-2.15-4.501-4.382-7.373-5.096-1.019-.254-1.853-.608-1.853-.786 0-.178 1.061-1.56 2.359-3.072 1.297-1.512 2.359-3.021 2.359-3.354 0-.874-4.632-6.383-5.593-6.653-.446-.126-2.236-.136-3.98-.024Zm8.137.579c-.838 1.013-.783 1.043.592.312 1.568-.833 1.954-1.43.925-1.43-.325 0-1.008.503-1.517 1.118ZM36.024 4.705c0 .524-.186 1.508-.414 2.184-.251.75.267.442 1.324-.785 2.078-2.41 2.392-1.65.372.902L35.89 8.793 39.063 9c1.744.115 3.345.035 3.558-.178.213-.212-.637-1.44-1.89-2.728-2.327-2.394-4.707-3.096-4.707-1.389Zm5.055.391c.67.74 1.296 1.344 1.389 1.344.093 0 .01-.604-.183-1.344-.194-.739-.82-1.344-1.39-1.344-.872 0-.842.214.184 1.344Zm-7.65 2.025c-1.208 1.627-1.29 2.008-.441 2.008.576 0 1.352-.798 1.724-1.774.95-2.494.459-2.584-1.284-.234ZM43.438 6.3c0 .79.588 1.751 1.306 2.135 1.997 1.065 2.231-.259.358-2.014-1.662-1.557-1.664-1.557-1.664-.121ZM31.98 10.055c0 .139.455.63 1.011 1.09.828.685 1.011.639 1.011-.254 0-.6-.455-1.09-1.01-1.09-.557 0-1.012.114-1.012.254Zm5.992 1.314c1.17 1.167 1.51 1.223 2.564.425 1.04-.787 1.095-.784.374.021-.463.519-.817 1.713-.787 2.656.053 1.648.091 1.631 1-.441 1.288-2.932.715-4.005-2.133-4.005h-2.367l1.349 1.344Zm4.878.783c-.886 3.199-.626 3.609.859 1.35.784-1.193.935-2.057.496-2.84-.515-.916-.765-.642-1.355 1.49Zm-30.202-.75c-3.475 1.133-5.96 3.034-8.24 6.308-2.132 3.062-2.182 3.25-2.598 9.744-.327 5.119-.285 5.292 2.117 8.9 1.503 2.258 3.896 4.637 6.19 6.156 3.265 2.162 4.269 2.481 7.915 2.52 8.206.089 14.762-4.465 16.936-11.767 1.655-5.556 1.26-12.038-.732-12.038-.7 0-.787.314-.326 1.176 1.452 2.716-.586 11.158-3.721 15.41-2.621 3.556-5.404 5.146-8.784 5.018-1.99-.075-2.114-.631-1.816-.15.337 0-1.239-.096-2.74-.285-1.422-.178-2.15-.192-2.02-.748.171-.727.244-.724-.632 0-.958-1.064-1.61 1.416-4.672-1.84-3.869-4.111-5.87-8.52-5.84-12.868.019-2.763 1.956-7.873 3.299-8.7.415-.257.606-.707.423-1.001-.555-.895 2.05-2.786 4.45-3.232 3.38-.628 10.803-.588 12.625.068 1.091.392 1.46.347 1.157-.141-.315-.508.153-.509 1.602-.006 1.125.391 2.214.984 2.421 1.317.496.8-.165.767-1.77-.09-.717-.383-1.304-.541-1.304-.353 0 .6 3.93 2.394 5.19 2.369.966-.02.801-.374-.809-1.741C26.18 11.362 18.17 9.6 12.65 11.4Zm24.327 1.643c1.304 2.515 2.426 3.295 2.398 1.668-.012-.67-.795-1.778-1.74-2.465l-1.719-1.25 1.06 2.047Zm-22.411 1.457c-3.971.936-8.242 6.118-9.271 11.25-1.026 5.114 3.757 12.475 9.537 14.675 6.202 2.363 14.416-.05 12.476-3.663-.49-.913-.519-1.426-.08-1.426.424 0 .526-1.152.269-3.024-1.157-8.415 6.539-14.909 15.418-13.01 3.192.682 8.555 4.374 9.309 6.406.638 1.722-.436 9.892-1.63 12.396-1.657 3.477-6.443 5.954-11.626 6.016-2.832.034-3.57.21-2.605.625 3.526 1.51 10.242.233 13.382-2.546 3.874-3.43 5.615-12.257 3.442-17.445-2.224-5.305-5.288-7.052-12.69-7.23-4.913-.119-5.527.024-8.41 1.953-5.425 3.633-7.861 10.21-5.891 15.91 1.244 3.602.789 4.413-.608 1.082-2.095-5-1.018-10.659 3.199-16.8.709-1.032.594-1.416-.747-2.514-1.732-1.417-7.612-3.364-9.829-3.256-.766.039-2.407.308-3.645.6Zm-4.983 1.16c-.838 1.065-2.09 1.78-1.022.945 1.123-.878 1.48-1.43.925-1.43-.14 0 .605-.163.097.484Zm26.645 4.617c-.573.258-.622.853-.168 2.043.352.924.64 3.582.64 5.909 0 3.364-.412 5.04-2.013 8.188-1.108 2.178-2.018 4-2.022 4.05-.005.051 1.023.58 2.283 1.177 5.54 2.62 12.369.38 15.063-4.941 2.874-5.679 1.602-11.372-3.361-15.038-1.807-1.336-8.544-2.232-10.422-1.388Zm-5.845 4.812c-1.901 3.668-2.196 10.92-.442 10.92 1.03 0 2.715-5.403 2.715-8.711 0-3.934-.916-4.824-2.273-2.21Z" fill="#000"/></svg>