<svg xmlns="http://www.w3.org/2000/svg" width="61" height="53" fill="none"><path fill-rule="evenodd" clip-rule="evenodd" d="M32.027 1.55c-1.165 1.285-1.478 2.382-.508 1.783.321-.198.418.276.214 1.053-.326 1.243-.419 1.276-.77.275-.22-.626-.68-1.158-1.02-1.182-.34-.023-1.257-.46-2.038-.97-2.16-1.413-3.705-.818-3.933 1.514-.16 1.64.38 2.627 2.992 5.462 3.094 3.356 3.226 3.425 4.452 2.32 2.08-1.878 4.778-7.394 4.556-9.317-.251-2.178-2.365-2.68-3.945-.938Zm1.518.72c-.372.695-.65 1.789-.619 2.43.032.643.357.156.723-1.082.583-1.977.727-2.095 1.185-.965.421 1.04.53 1.078.567.199.068-1.646-1.09-2.008-1.856-.581Zm-6.477 1.631c0 .552.29 1.003.644 1.003.355 0 .645-.272.645-.605 0-.333-.29-.784-.645-1.003-.354-.219-.644.054-.644.605Zm-7.734 3.614c0 .374.29.502.645.283.354-.218.644-.524.644-.68 0-.157-.29-.284-.644-.284-.355 0-.645.306-.645.68Zm17.723-.038c-.219.354-.09.643.285.643s.682-.29.682-.643c0-.354-.127-.643-.284-.643-.157 0-.464.29-.683.643Zm3.783.307c-.2.523-.409 2.113-.463 3.534-.105 2.784-.236 2.928-1.708 1.889-.691-.488-.747-.773-.198-.997.8-.327.432-2.16-.435-2.16-.849 0-.542 3.3.338 3.637.604.231.159 1.587-1.62 4.933-2.534 4.764-4.907 11.206-4.338 11.775.178.177.67-.782 1.093-2.132 1.62-5.177 5.79-12.746 7.73-14.033 1.918-1.274 2.583-3.216 1.25-3.66-.402-.134-.113-.962.692-1.983 1.4-1.776.982-2.425-.611-.95-.694.644-.777.644-.414 0 .25-.441.139-.803-.247-.803-.387 0-.867.427-1.069.95Zm-29.184.658c-.02.707.211 1.675.514 2.151.403.636.665.401.988-.88.241-.96.28-1.904.085-2.098-.194-.193-.374.202-.399.88-.043 1.178-.07 1.176-.599-.053l-.554-1.287-.035 1.287Zm3.94-.193c-.425.424-.773 1.223-.773 1.774 0 .926-1.49 2.233-3.867 3.393-.735.358-.657.456.322.408 2.195-.108 2.441.052 1.611 1.05-.525.632-.56.964-.101.964.385 0 1.01-.579 1.39-1.286.495-.922.49-1.287-.015-1.287-.388 0-.533-.277-.322-.618.385-.622 2.915 1.124 2.915 2.014 0 .256 1.418 2.335 3.15 4.62 1.734 2.284 3.677 5.7 4.32 7.591.71 2.09 1.264 2.986 1.413 2.285.177-.834.63-1.047 1.642-.773 1.229.333 1.26.293.265-.33-.623-.389-1.42-.53-1.772-.314-.64.395-.947-1.317-.719-4.002.067-.785-.572-2.81-1.42-4.503-1.464-2.92-1.656-5.115-.38-4.327.325.2.59-.202.59-.893 0-1.763-1.547-2.156-2.5-.635-.673 1.076-.492 1.922 1.174 5.475 2.356 5.023 2.586 6.767.388 2.929-.863-1.505-2.792-4.184-4.285-5.953-1.495-1.769-2.54-3.393-2.323-3.61.218-.217.865.073 1.44.646.573.573 1.384 1.032 1.802 1.02.418-.012.035-.635-.851-1.386-1.571-1.33-1.575-1.355-.161-1.003.797.198 1.45.098 1.45-.223 0-.782-1.727-.738-3.265.083-1.006.538-1.247.454-1.247-.431 0-.604.48-1.627 1.067-2.274 1.167-1.287.315-1.654-.938-.404Zm1.437.79c-.683.498-1.096 1.05-.92 1.227.178.177.882-.086 1.564-.584.683-.498 1.096-1.05.919-1.227-.177-.177-.88.086-1.563.584Zm4.235.367a.646.646 0 0 0 1.289 0 .646.646 0 0 0-1.289 0Zm13.516 1.995c-.392 1.45-.554 2.794-.362 2.986.192.192.476-.055.63-.547.154-.493.581-1.836.948-2.986.382-1.195.417-2.09.082-2.09-.323 0-.907 1.186-1.298 2.637Zm8.768-2.075c-.192.31.366.563 1.24.563.872 0 1.43-.254 1.238-.563-.192-.31-.75-.563-1.239-.563-.49 0-1.047.254-1.24.563Zm-33.885.645c0 .31.413.906.916 1.323.752.623.854.521.57-.565-.34-1.292-1.486-1.878-1.486-.758Zm34.802.544c0 .281.58.873 1.289 1.315.714.445 1.289.524 1.289.177 0-.344-.58-.935-1.29-1.314-.708-.38-1.288-.459-1.288-.178Zm4.511 1.464a.646.646 0 0 0 1.29 0 .646.646 0 0 0-.645-.643.646.646 0 0 0-.645.643Zm-4.055 1.28c.184.703.58 1.128.878.944.634-.392.06-2.224-.698-2.224-.284 0-.365.576-.18 1.28ZM4.788 15.433c.372 2.477.265 2.854-.89 3.155-1.715.448-2.332 2.143-1.252 3.44.663.799 1.575.945 4.05.653 1.757-.208 3.471-.654 3.81-.991.39-.39-.109-2.158-1.367-4.842-1.546-3.297-2.289-4.227-3.378-4.227-1.283 0-1.362.227-.973 2.812Zm20.395-2.168c.005.176.411 1.768.903 3.537.866 3.111.896 3.141.939.927.024-1.259-.383-2.85-.903-3.538-.52-.686-.943-1.103-.939-.927Zm18.43 1.286c-.435 1.376-.574 1.446-.962.485-.413-1.023-.53-1-1.315.254-.754 1.205-.733 1.327.169.982.582-.223 1.03-.067 1.03.357 0 .571.183.57.758-.005.554-.552.989-.566 1.611-.05.622.515.854.511.854-.015 0-.397-.27-.722-.6-.722-.33 0-.698-.65-.819-1.447-.215-1.423-.227-1.42-.727.16ZM30.13 16.803c.257 2.27.122 2.894-.624 2.894-1.326 0-3.084 2.092-3.084 3.67 0 1.765 1.36 2.792 3.095 2.339.87-.227 1.417-.076 1.417.39 0 1.327-1.302 3.25-2.2 3.25-.475 0-1.216.421-1.645.937-.623.75-.487 1.457.685 3.537.805 1.43 1.724 2.6 2.042 2.6.318 0-.026-.975-.763-2.166-1.572-2.539-1.698-3.622-.42-3.622 2.3 0 3.704-3.712 2.543-6.729-.37-.963-.494-.962-1.57.01-1.376 1.244-2.539.743-2.539-1.094 0-.858.66-1.553 1.933-2.032 1.064-.4 1.934-.955 1.934-1.23 0-.277.307-.503.682-.503.375 0 .504.29.285.643-.61.984.752.765 1.81-.29.515-.514 1.115-.756 1.335-.537.22.22.4-.105.4-.72 0-.614-.453-1.569-1.006-2.12-.91-.909-1.038-.874-1.364.367-.501 1.914-1.253 1.709-2.045-.559-.957-2.738-1.28-2.392-.9.965Zm-15.053-.34c-.038 1.05.18 1.756.483 1.569.678-.419.737-3.48.068-3.479-.267.001-.514.86-.551 1.91Zm33.677-.95c-1.005 1.001-2.997 6.697-2.997 8.564 0 1.923 9.628-.4 11.627-2.804.773-.929.722-1.196-.373-1.996-.696-.508-1.899-.765-2.674-.57-1.207.3-1.438.052-1.61-1.741-.235-2.424-2.26-3.165-3.973-1.454Zm1.938.68c.391 1.017 1.51 1.282 1.51.357 0-.316-.42-.735-.934-.932-.625-.239-.816-.049-.576.575ZM40.66 19.215c-.305.796-1.197 2.025-1.984 2.732-1.59 1.43-3.5 4.77-3.008 5.262.175.174.667-.36 1.094-1.185 1.475-2.859 3.861-4.914 5.275-4.545 1.729.45 3.399-1.584 2.342-2.854-1.106-1.33-3.105-1.014-3.719.59Zm1.392-.342c-1.25.448-.95 1.192.483 1.192.71 0 1.29-.21 1.29-.467 0-.699-.862-1.051-1.773-.725Zm-25.296.872c0 1.27-1.566 2.296-3.188 2.088-1.482-.19-1.443-.117.4.738 1.125.522 2.491 1.585 3.037 2.361.9 1.284.89 1.487-.112 2.224-1.03.757-1.02.843.147 1.294.774.299 1.346.196 1.502-.27.18-.54.603-.566 1.489-.094 1.465.783 1.652 2.546.27 2.546-1.306 0-1.233 1.867.093 2.375.626.24 1.378-.027 1.834-.65.704-.96.89-.926 2.066.378 1.673 1.856 2.365 3.77 1.314 3.635-1.792-.23-2.407.116-2.407 1.357 0 1.644 1.632 2.317 2.958 1.218 1.624-1.345 2.275.428 2.054 5.597-.138 3.234.02 4.502.539 4.303.404-.154.913.428 1.131 1.294.218.867.789 1.726 1.269 1.91.655.25.598-.206-.233-1.83-.607-1.19-.968-2.885-.799-3.764.262-1.372.475-1.494 1.491-.861.95.592 1.447.502 2.51-.458 2.682-2.423.898-6.105-2.064-4.259-1.193.744-1.265.662-.998-1.15.158-1.074.05-1.806-.24-1.627-.29.179-.533 1.394-.538 2.7-.014 3.24-1.042 4.751-1.156 1.699-.05-1.287-.532-3.225-1.073-4.308-.541-1.083-.984-2.38-.984-2.885 0-.504-1.18-2.082-2.621-3.506-1.481-1.463-2.472-2.977-2.279-3.48.188-.489.135-.835-.118-.77-.94.245-3.36-.889-3.36-1.575 0-.39-.475-1.233-1.055-1.872-.976-1.077-.976-1.193 0-1.567 1.322-.506 1.38-2.576.088-3.072-.532-.203-.967-.077-.967.28Zm-.966 2.525c-.22.354-.091.643.284.643s.682-.29.682-.643c0-.354-.127-.643-.284-.643-.157 0-.463.29-.682.643Zm16.434.643a.646.646 0 0 0 1.289 0 .646.646 0 0 0-1.29 0Zm8.418.917c-.42.505-.673 1.446-.563 2.09.138.805-.255 1.238-1.25 1.38-1.407.2-2.098 1.402-.805 1.402.355 0 .645.868.645 1.93 0 2.07-1.658 2.752-2.345.964-.942-2.45-4.1.396-4.1 3.695 0 2.098 2.694 3.843 3.97 2.57 1.216-1.214.078-2.912-1.722-2.568-1.88.358-2.057-.514-.542-2.672l1.062-1.514 1.06 1.402c1.745 2.309 3.591.988 3.42-2.448-.025-.49.504-1.48 1.175-2.2.828-.886 1.019-1.55.594-2.06-.768-.923-.178-1.601 1.394-1.601.747 0 1.119.41 1.02 1.125-.203 1.488 1.073 2.005 1.354.549.218-1.13-1.515-2.902-2.878-2.94-.4-.012-1.07.392-1.49.896ZM8.7 24.2c.22.353.526.643.683.643.157 0 .284-.29.284-.643 0-.354-.307-.644-.682-.644-.375 0-.504.29-.285.644Zm2.9.68c0 .375.29.503.645.284.355-.218.645-.524.645-.68 0-.157-.29-.284-.645-.284-.354 0-.644.306-.644.68ZM50.7 26.559c-.783.781-.445 1.467.537 1.09.532-.203.967-.629.967-.945 0-.674-.889-.76-1.504-.145Zm-41.676.777c-.986.41-1.664 3.256-.798 3.346.261.027.94.14 1.507.25.745.146 1.047-.312 1.085-1.646.059-2.069-.375-2.54-1.794-1.95Zm-7.069.865c-.013.714-.362.974-.987.735-1.13-.433-1.32 1.087-.266 2.138.504.504.504.82 0 1.132-.386.238-.701.74-.701 1.116 0 .427.367.38.979-.127.798-.66 1.194-.616 2.145.243 1.7 1.535 2.334 1.288 1.185-.462-.903-1.375-.897-1.614.064-2.573.799-.797.845-1.057.187-1.057-.48 0-1.258-.507-1.73-1.125-.801-1.055-.857-1.056-.876-.02Zm56.435.247c-.219.568-.757.885-1.197.705-3.308-1.35-3.402-1.363-2.578-.35.44.54.585 1.22.322 1.509-.263.289.062.331.722.094 1.026-.37 1.14-.193.785 1.218-.374 1.485-.29 1.582.855.97.843-.45 1.405-.462 1.67-.034.632 1.02 1.613.75 1.198-.328-.206-.535-.023-1.395.406-1.912.62-.744.578-1.141-.203-1.92-1.239-1.237-1.489-1.23-1.98.048Zm-42.922 1.22c.833.884 1.615 1.608 1.739 1.608.123 0-.25-.724-.831-1.608-.58-.885-1.363-1.608-1.738-1.608-.376 0-.002.723.83 1.608Zm29.657-.013c-.462.555-.673 1.174-.471 1.375.202.202-.639 1.248-1.867 2.324-2.251 1.972-5.825 7.366-5.257 7.933.169.168 1.05-.785 1.957-2.12 2.587-3.8 6.66-7.891 7.856-7.891.687 0 1.008-.413.873-1.119-.286-1.48-2.04-1.765-3.091-.502Zm4.5-.309a.646.646 0 0 0 1.289 0 .646.646 0 0 0-.644-.643.646.646 0 0 0-.644.643Zm-38.668.215c0 .118 1.523 1.261 3.384 2.541 3.09 2.126 8.217 7.462 8.217 8.555 0 .25-1.595-1.052-3.544-2.892-3.487-3.29-7.638-5.593-11.763-6.524-2.52-.57-2.842.351-.343.977 9.183 2.3 17.559 10.816 17.577 17.87.003 1.369.323 2.413.738 2.413 1.09 0 .203-5.271-1.422-8.451-.921-1.802-1.133-2.797-.656-3.091.745-.46-3.599-5.948-6.837-8.636-2.46-2.042-5.35-3.535-5.35-2.762Zm9.351 2.368c.223.36.675.488 1.005.284.894-.551.728-.937-.405-.937-.552 0-.822.294-.6.653Zm30.929.137c-7.424 2.646-14.12 10.075-16.34 18.129-.854 3.097.105 2.243 1.151-1.025 1.146-3.58 5.308-9.624 8.077-11.727 1.355-1.03 4.38-2.83 6.721-4 4.127-2.06 4.332-2.78.39-1.377Zm-17.723 4.286c0 .71 1.672 1.402 2.175.9.202-.202.213-.616.025-.92-.452-.73-2.2-.715-2.2.02ZM3.945 38.028c-.079 1.552-.232 1.74-.784.965-.523-.734-.588-.515-.272.916.364 1.653.292 1.78-.593 1.047-.675-.559-1.007-.597-1.007-.114 0 .396.942 1.106 2.095 1.578 1.818.745 2.197.724 2.879-.16 1.143-1.48.998-2.483-.422-2.933-.686-.217-1.372-1.033-1.523-1.811-.21-1.085-.298-.965-.373.512Zm2.246-.59c-.552 1.437-.509 1.555.576 1.555.532 0 .967.389.967.865 0 1.228 2.375 3.28 2.693 2.328.188-.563.953-.556 3.117.025 3.509.943 8.185 5.355 8.77 8.274.222 1.108.677 2.015 1.01 2.015.335 0 .407-.651.161-1.447-1.846-5.974-6.83-10.13-12.148-10.13-2.43 0-3.676-1.007-1.839-1.485 1.035-.27 1.03-.302-.06-.37-.754-.047-1.068-.413-.847-.986.193-.502-.09-1.081-.628-1.287-1.33-.51-1.328-.51-1.772.643Zm4.765.306c0 .375.29.503.645.284.354-.219.644-.525.644-.681 0-.156-.29-.284-.644-.284-.355 0-.645.307-.645.681Zm13.534-.038a.646.646 0 0 0 1.289 0 .646.646 0 0 0-.644-.643.646.646 0 0 0-.645.643Zm25.457 0c-.22.354-.091.644.284.644s.683-.29.683-.644c0-.353-.128-.643-.285-.643-.156 0-.463.29-.682.643Zm5.639-.217c-.443.179-.806.607-.806.952s.266.464.59.264c.326-.2 1.34-.08 2.257.267 1.078.41 1.665.411 1.665.005 0-.345-.598-.627-1.327-.627-.73 0-1.148-.29-.929-.644.42-.677-.109-.757-1.45-.217Zm-20.784 2.147a.646.646 0 0 0 1.289 0 .646.646 0 0 0-1.29 0Zm13.212 0c-.22.354-.091.643.284.643s.682-.29.682-.643c0-.354-.127-.643-.284-.643-.157 0-.463.29-.682.643ZM4.51 41.244c0 .53.308.965.683.965.375 0 .519-.265.318-.589-.2-.323 0-.734.446-.914.488-.196.362-.345-.319-.376-.62-.028-1.128.383-1.128.914Zm14.6 1.867c1.718 1.557 3.267 2.692 3.442 2.522.44-.426-4.93-5.354-5.834-5.354-.403 0 .674 1.274 2.392 2.832Zm31.823-2.502c-.011.36-1.443.99-3.183 1.402-5.595 1.327-10.168 5.058-11.277 9.202-.374 1.399-.291 1.356.638-.321 2.405-4.342 5.714-6.588 11.675-7.925 2.114-.474 2.766-.413 3.034.284.188.488.657.887 1.044.887.386 0 .496-.334.243-.742-.312-.504-.174-.566.429-.194.489.3 1.476.563 2.194.581.718.019 1.305.323 1.305.677 0 .354-1.233.632-2.739.62-1.506-.014-2.739.17-2.739.407 0 .687 3.487 1.181 4.107.582.308-.299.979-.384 1.488-.189.58.222 1.06-.156 1.284-1.008.196-.75.583-1.222.86-1.051.701.431 1.322-1.406.873-2.577-.375-.973-1.588-1.378-1.447-.482.043.265.043.989 0 1.608-.112 1.671-1.153 1.365-1.093-.322.066-1.892-2.716-2.415-3.941-.742-.804 1.096-.885 1.092-1.788-.1-.52-.686-.956-.955-.967-.597Zm3.463 1.056c-.285.46-.177.568.284.283.409-.252.744-.151.744.223s.29.681.644.681c.355 0 .645-.434.645-.965 0-1.136-1.653-1.294-2.317-.222Zm-22.702.727c-1.028 1.234.112 2.608 1.737 2.094 1.732-.55 1.862-2.92.16-2.92-.666 0-1.519.371-1.897.825ZM8.121 43.922c.593 2.465.902 2.698.902.682 0-.923-.302-1.863-.67-2.09-.44-.272-.52.213-.232 1.408Zm17.37-1.126a.717.717 0 1 0 1.221.752.717.717 0 0 0-1.221-.752Zm-22.39 1.138c.466.185 1.022.162 1.236-.051.214-.214-.167-.366-.846-.338-.75.03-.903.183-.39.389Zm2.42.816c-.685.249-.962.627-.614.842.665.41 2.688-.541 2.164-1.017-.167-.152-.865-.073-1.55.175Zm6.697 1.67c-.684.825-.643 1.184.24 2.063.803.803 1.25.884 1.807.327.558-.556 1.523-.442 3.912.464 2.335.886 2.973.965 2.422.3-.413-.495-1.709-1.08-2.881-1.3-1.341-.25-2.251-.853-2.453-1.624-.389-1.482-1.91-1.596-3.047-.23Zm31.606-.353a.646.646 0 0 0 1.29 0 .646.646 0 0 0-.645-.643.646.646 0 0 0-.645.643Zm-30.632.675c-.592.956-.121 1.294.913.657.554-.342.62-.673.187-.94-.368-.227-.863-.1-1.1.283Zm32.566.611c0 .354.29.644.644.644.355 0 .645-.29.645-.644a.646.646 0 0 0-1.29 0Zm-14.179.644a.646.646 0 0 0 1.289 0 .646.646 0 0 0-1.289 0Zm8.788 1.333c-.934.732-1.698 1.785-1.698 2.337 0 .69.42.473 1.336-.69.734-.931 1.732-1.694 2.217-1.694.485 0 1.061-.29 1.28-.643.708-1.144-1.387-.683-3.135.69Zm4.102-.69c0 .353.307.643.682.643.375 0 .504-.29.285-.643-.22-.354-.526-.643-.683-.643-.157 0-.284.289-.284.643Zm-36.09 1.324c0 .374.29.502.644.284.354-.22.644-.525.644-.681 0-.157-.29-.284-.644-.284-.355 0-.645.307-.645.681Zm23.2-.038a.646.646 0 0 0 1.29 0 .646.646 0 0 0-.645-.643.646.646 0 0 0-.645.643Z" fill="#000"/></svg>