<svg xmlns="http://www.w3.org/2000/svg" width="36" height="35" fill="none"><path d="M1.13 17.403c0-2.96.353-5.27 1.465-8.039.61-1.517 1.76-4.13 3.383-4.849C7.31 3.926 8.51 2.783 9.95 2.465c1.192-.264 2.316-1.022 3.53-1.156C15.024 1.14 16.51 1 18.072 1c7.096 0 14.244 4.925 15.772 12.075.983 4.598 2.51 10.152-1.242 13.995-3.399 3.48-8.247 6.444-13.238 6.444-4.253 0-8.777.31-12.046-2.946-2.576-2.565-4.475-5.503-5.9-8.836-1.17-2.74.489-7.239.489-10.215" stroke="#000" stroke-width="1.8" stroke-linecap="round"/><path d="M10.547 10.678c.23 1.96.895 4.227 1.678 6.055.219.51.516.998.516 1.537M17.127 8.147c0 2.005.82 3.68 1.48 5.53.168.47.375.9.375 1.387M24.755 14.304c0 2.215-1.19 4.812-2.493 6.58-1.253 1.701-3.386 2.797-5.426 3.205-1.33.266-3.12.369-4.48.16-.478-.074-1.522-.23-1.903-.535-.596-.476-1.539-.108-2.062-.806" stroke="#000" stroke-width="1.8" stroke-linecap="round"/><path d="M26.91 19.916c-.62-.4-1.33-1.069-2.089-1.177.037.036-2.8 2.746-2.98 3.217-.052.133-.211.216-.115.295.157.128.363.228.531.324.128.073.194.25.276.367.236.337.45.692.698 1.02.445.59.957 1.159 1.531 1.623.652.528 1.32.95 2.125 1.213.617.202 1.44.021 2.02-.222.907-.382 1.226-1.018 1.226-1.994 0-.46-.181-.92-.295-1.36-.15-.577-.314-1.138-.741-1.565a13.613 13.613 0 0 0-2.187-1.74Z" fill="#FFA4A4" stroke="#000" stroke-linecap="round"/></svg>